PathFileType	4	(X/Y/Z)	/Users/mathieubourgeois/Desktop/Analyse/Traitement/Sujet_01/Data/Transformed_Sujet_01_velo_80.trc
DataRate	CameraRate	NumFrames	NumMarkers	Units	OrigDataRate	OrigDataStartFrame	OrigNumFrames
120.000000	120.000000	4	35	mm	120.000000	489	1957
Frame#	Time	RFHD			LFHD			RBHD			LBHD			RSHO			LSHO			CLAV			STRN			T10			RBWT			LBWT			RFWT			LFWT			RRAD			RWRA			RWRB			RCAR			RHUM			LHUM			LRAD			LWRA			LWRB			LCAR			RKNI			RKNE			LKNI			LKNE			RANE			RANI			RTOE			RHEE			LTOE			LANI			LANE			LHEE			
		X1	Y1	Z1	X2	Y2	Z2	X3	Y3	Z3	X4	Y4	Z4	X5	Y5	Z5	X6	Y6	Z6	X7	Y7	Z7	X8	Y8	Z8	X9	Y9	Z9	X10	Y10	Z10	X11	Y11	Z11	X12	Y12	Z12	X13	Y13	Z13	X14	Y14	Z14	X15	Y15	Z15	X16	Y16	Z16	X17	Y17	Z17	X18	Y18	Z18	X19	Y19	Z19	X20	Y20	Z20	X21	Y21	Z21	X22	Y22	Z22	X23	Y23	Z23	X24	Y24	Z24	X25	Y25	Z25	X26	Y26	Z26	X27	Y27	Z27	X28	Y28	Z28	X29	Y29	Z29	X30	Y30	Z30	X31	Y31	Z31	X32	Y32	Z32	X33	Y33	Z33	X34	Y34	Z34	X35	Y35	Z35	

490	4.075	186.6305999755859	1404.648559570312	306.5690612792968	187.1273803710937	1402.541015625	181.6889648437499	87.16411590576168	1519.442016601562	310.6761779785155	83.83895111083982	1521.800170898438	178.6039581298827	-9.886466979980511	1382.185302734375	343.4955139160156	-6.527824401855485	1372.66552734375	130.3074340820312	12.83920383453366	1302.144409179688	249.934341430664	-46.07407379150393	1216.471313476562	249.6158294677734	-222.5910186767578	1380.538940429688	248.3891143798827	-419.7314147949219	1111.435302734375	318.1232604980468	-420.8274230957031	1099.301147460938	198.4550781249999	-246.9885559082032	1081.03564453125	371.5702819824218	-240.4638366699219	1067.712646484375	147.5574951171874	129.0071716308593	1174.033325195312	486.7305603027343	296.8783874511718	1033.359497070312	404.7505798339844	318.8356933593749	1050.585571289062	464.3464660644531	402.9647827148437	1028.998046875	402.8378601074219	81.60481262207026	1133.663208007812	459.4826660156249	99.66636657714842	1133.527587890625	80.41876220703119	152.5126495361328	1165.29248046875	55.47580337524409	314.5139465332031	1035.683715820312	161.3221282958984	340.8296813964844	1048.089721679688	98.0691223144531	398.5315551757812	1046.862426757812	171.1859436035156	14.17870044708248	822.6923217773438	341.1196594238281	0.09217543900007377	858.3096923828125	456.6560974121093	-60.30075454711916	707.373291015625	202.6973419189453	-85.51059722900392	700.435546875	77.02440643310541	-68.87787628173834	518.3944702148438	434.9941101074218	-37.45396423339848	524.474365234375	357.7749023437499	114.423225402832	462.2841186523438	431.876220703125	-127.0886917114258	472.4184265136719	387.2084045410156	-156.1098937988282	279.5392761230469	131.9378814697265	-271.1945495605469	425.0819091796875	173.567153930664	-287.1640319824219	423.3837280273438	97.27944183349604	-366.5684204101562	417.6082458496094	142.4946136474609	
491	4.083333333333333	186.4824066162109	1404.69677734375	306.8510131835936	187.1859588623047	1402.967895507812	182.0504608154296	87.10816192626949	1519.561767578125	310.9735717773436	83.86936950683591	1521.969848632812	178.880142211914	-9.879738807678265	1382.325317382812	343.5794372558593	-6.493752956390397	1372.709228515625	130.2859954833984	12.73171615600583	1302.411010742188	250.0003051757812	-46.05911636352542	1216.702392578125	249.7032318115234	-222.7164154052735	1380.606201171875	248.548370361328	-419.2633972167969	1111.000366210938	318.5591430664061	-420.6128540039062	1099.021606445312	198.8676605224608	-246.3285675048829	1080.464599609375	371.8894958496093	-240.33740234375	1067.887084960938	147.8695373535155	129.1793365478515	1174.02197265625	486.6143188476562	297.0165710449218	1033.199951171875	404.8280334472656	318.9787597656249	1050.481567382812	464.4255676269531	403.0666503906249	1028.981201171875	402.9083251953125	81.81098175048822	1133.7109375	459.3139343261718	99.86288452148436	1133.639526367188	80.38745880126947	152.7271270751953	1165.4228515625	55.5361938476562	314.6534729003906	1035.724853515625	161.3606567382812	340.9681396484375	1048.098388671875	98.13091278076169	398.6452941894531	1046.793579101562	171.2581939697266	12.09207057952877	812.1111450195312	342.2710571289062	-2.759102821350154	847.5219116210938	457.7014465332031	-54.39502334594729	713.5924682617188	202.0097045898437	-80.15396881103517	707.093994140625	76.00074005126947	-64.50415802001959	506.1548156738281	435.5830383300781	-37.25278472900395	513.1509399414062	358.1808776855468	119.1953430175781	451.0675354003906	432.1715087890625	-122.4382705688477	460.2954406738281	387.6283264160156	-160.2776947021485	289.2894287109375	132.0059204101562	-272.5176391601562	436.5073547363281	173.8631896972656	-288.8501586914062	435.5977172851562	97.46684265136713	-368.1911315917969	431.1436462402344	142.8170928955077	
492	4.091666666666667	186.4113311767578	1404.877685546875	307.092315673828	187.1973114013672	1403.191040039062	182.314468383789	87.34105682373043	1519.923461914062	311.1061706542968	83.88683319091794	1522.21337890625	179.1225433349609	-9.770396232605023	1382.464477539062	343.6058654785156	-6.376437664031998	1372.863525390625	130.2172851562499	12.79791545867917	1302.669067382812	250.0352783203124	-45.90408325195315	1216.94970703125	249.6837310791015	-222.7411041259766	1380.712524414062	248.6809692382811	-418.6765747070313	1110.649291992188	319.1163330078124	-420.303955078125	1098.80859375	199.2973327636718	-245.5415039062501	1079.823608398438	372.2947387695311	-240.1956329345703	1068.117553710938	148.204864501953	129.4384613037109	1174.053833007812	486.4763488769531	297.2073364257812	1033.011962890625	404.95751953125	319.1795654296874	1050.370971679688	464.5258483886719	403.2210388183593	1028.92333984375	403.0126342773438	82.08907318115229	1133.791748046875	459.1273803710937	100.0717697143555	1133.775268554688	80.26615905761713	152.9375	1165.543212890625	55.56046295166011	314.7906494140625	1035.758911132812	161.4342193603515	341.1540222167969	1048.083618164062	98.21942901611325	398.80517578125	1046.727416992188	171.3359527587891	9.650646209716754	801.1109008789062	343.4297180175781	-6.089119911193904	836.3265991210938	458.7854614257812	-49.37165451049807	720.696044921875	201.5748748779296	-74.7032928466797	714.260009765625	75.07851409912104	-60.86078262329107	494.5542602539062	436.2112731933593	-34.25908660888676	501.3580627441406	358.7281799316406	122.9218673706054	439.6265869140625	432.6641235351562	-118.6103439331055	448.1946411132812	387.9451293945312	-163.7006225585938	299.3813171386719	132.0629119873046	-273.1667785644531	448.6451416015625	174.2313232421874	-289.7320861816406	447.9366760253906	97.66768646240229	-369.1549682617188	444.7437744140625	143.2476348876952	
493	4.1	186.2661895751953	1405.284790039062	307.3225097656249	187.2846374511718	1403.503784179688	182.5096282958984	87.35238647460933	1520.180786132812	311.301300048828	83.95223236083982	1522.54150390625	179.2917022705077	-9.570487022399945	1382.6220703125	343.6009826660156	-6.22292852401735	1373.021118164062	130.0799102783202	13.00569629669186	1303.01123046875	250.0011901855468	-45.60535430908206	1217.161743164062	249.5711059570312	-222.6631774902344	1380.847778320312	248.8134155273436	-417.9974670410157	1110.334350585938	319.7675781249999	-419.9799194335938	1098.654541015625	199.8806915283202	-244.5870361328126	1079.13037109375	372.6541442871093	-240.1020812988282	1068.363403320312	148.511993408203	129.8483276367187	1174.14013671875	486.2691345214843	297.4397583007812	1032.794311523438	405.1319580078125	319.3933105468749	1050.227905273438	464.6925354003906	403.4049682617187	1028.82470703125	403.18212890625	82.45881652832026	1133.871459960938	458.9356689453124	100.2775115966797	1133.891845703125	80.11448669433588	153.2145385742188	1165.66357421875	55.59439468383784	314.95947265625	1035.768432617188	161.5507049560547	341.3686828613281	1048.06201171875	98.34494781494138	399.0040283203125	1046.668212890625	171.5093231201172	1.691337585449177	789.6546020507812	344.2120666503906	-9.678788185119686	824.754150390625	459.8114929199218	-42.55537414550783	727.3958740234375	200.8066253662109	-69.05310058593751	721.861328125	74.20161437988276	-58.0712394714356	482.208251953125	436.5371398925781	-31.49763488769536	489.3865051269531	359.1507873535156	126.0074844360351	427.6604919433594	432.9602661132812	-115.4817047119141	436.1245727539062	388.0784301757812	-166.2817535400391	309.7978210449219	132.1676025390624	-273.0644836425781	460.8961486816406	174.6798553466796	-289.8845825195312	460.3200073242188	98.03408813476557	-369.4203186035156	458.4367980957031	143.7063598632812	
